<?xml version="1.0" encoding="utf-8"?>
<!-- Generator: Adobe Illustrator 24.0.0, SVG Export Plug-In . SVG Version: 6.00 Build 0)  -->
<svg version="1.1" id="Capa_1" xmlns="http://www.w3.org/2000/svg" xmlns:xlink="http://www.w3.org/1999/xlink" x="0px" y="0px"
	 viewBox="0 0 564.29 107.14" style="enable-background:new 0 0 564.29 107.14;" xml:space="preserve">
<style type="text/css">
	.st0{display:none;}
	.st1{fill:#878787;}
	.st2{fill:#E30613;}
</style>
<rect x="14.29" y="-27.27" class="st0" width="194.81" height="66.88"/>
<g>
	<path class="st1" d="M37.25,33.78v9.46h6.26v8.23h-6.26v17.4c0,1.43,0.26,2.43,0.77,2.99c0.52,0.56,1.53,0.84,3.06,0.84
		c1.17,0,2.16-0.07,2.95-0.21v8.47c-2.13,0.68-4.36,1.02-6.68,1.02c-4.08,0-7.09-0.96-9.04-2.88c-1.95-1.92-2.92-4.84-2.92-8.75
		V51.46h-4.85v-8.23h4.85v-9.46H37.25z"/>
	<path class="st1" d="M76.58,53.96l-3.9-0.28c-3.73,0-6.12,1.17-7.17,3.52v24.08H53.65V43.23h11.11l0.39,4.89
		c1.99-3.73,4.77-5.59,8.33-5.59c1.27,0,2.37,0.14,3.3,0.42L76.58,53.96z"/>
	<path class="st1" d="M106.62,81.27c-0.42-0.77-0.8-1.91-1.13-3.41c-2.18,2.74-5.23,4.11-9.14,4.11c-3.59,0-6.63-1.08-9.14-3.25
		c-2.51-2.17-3.76-4.89-3.76-8.17c0-4.13,1.52-7.24,4.57-9.35c3.05-2.11,7.48-3.16,13.29-3.16h3.66v-2.01
		c0-3.51-1.51-5.26-4.54-5.26c-2.81,0-4.22,1.39-4.22,4.17H84.37c0-3.68,1.56-6.66,4.69-8.95s7.12-3.44,11.97-3.44
		s8.68,1.18,11.5,3.55c2.81,2.37,4.25,5.61,4.32,9.74v16.84c0.05,3.49,0.59,6.16,1.62,8.02v0.6H106.62z M99.2,73.54
		c1.48,0,2.7-0.32,3.67-0.95c0.97-0.63,1.67-1.35,2.09-2.14v-6.08h-3.45c-4.13,0-6.19,1.85-6.19,5.55c0,1.08,0.36,1.95,1.09,2.62
		C97.15,73.2,98.08,73.54,99.2,73.54z"/>
	<path class="st1" d="M139.69,43.23l0.39,4.46c2.62-3.45,6.25-5.17,10.86-5.17c3.96,0,6.92,1.18,8.88,3.55
		c1.96,2.37,2.97,5.93,3.04,10.69v24.5h-11.88V57.26c0-1.92-0.39-3.33-1.16-4.24c-0.77-0.9-2.18-1.35-4.22-1.35
		c-2.32,0-4.04,0.91-5.17,2.74v26.86h-11.85V43.23H139.69z"/>
	<path class="st1" d="M194.73,70.59c0-1.01-0.53-1.82-1.58-2.43c-1.05-0.61-3.06-1.24-6.01-1.9c-2.95-0.66-5.39-1.52-7.31-2.58
		c-1.92-1.07-3.39-2.36-4.39-3.88c-1.01-1.52-1.51-3.27-1.51-5.24c0-3.49,1.44-6.37,4.32-8.63c2.88-2.26,6.66-3.39,11.32-3.39
		c5.02,0,9.05,1.14,12.09,3.41c3.05,2.27,4.57,5.26,4.57,8.96h-11.88c0-3.05-1.61-4.57-4.82-4.57c-1.24,0-2.29,0.35-3.13,1.04
		c-0.84,0.69-1.27,1.55-1.27,2.58c0,1.05,0.52,1.91,1.55,2.57c1.03,0.66,2.68,1.2,4.94,1.62c2.26,0.42,4.25,0.93,5.96,1.51
		c5.72,1.97,8.58,5.5,8.58,10.58c0,3.47-1.54,6.29-4.62,8.47c-3.08,2.18-7.07,3.27-11.97,3.27c-3.26,0-6.16-0.59-8.72-1.76
		c-2.55-1.17-4.55-2.77-5.98-4.78c-1.43-2.02-2.14-4.14-2.14-6.36h11.07c0.05,1.76,0.63,3.04,1.76,3.85s2.57,1.21,4.32,1.21
		c1.62,0,2.83-0.33,3.64-0.98C194.33,72.5,194.73,71.64,194.73,70.59z"/>
	<path class="st2" d="M228.29,43.23l0.39,4.46c2.69-3.45,6.32-5.17,10.86-5.17c4.8,0,8.05,1.91,9.74,5.73
		c2.58-3.82,6.3-5.73,11.18-5.73c7.71,0,11.67,4.66,11.88,13.99v24.75h-11.88V57.26c0-1.95-0.33-3.36-0.98-4.25
		c-0.66-0.89-1.85-1.34-3.59-1.34c-2.34,0-4.09,1.04-5.24,3.13l0.04,0.49v25.98H238.8V57.33c0-1.99-0.32-3.43-0.95-4.32
		c-0.63-0.89-1.84-1.34-3.62-1.34c-2.27,0-4.01,1.04-5.2,3.13v26.47h-11.85V43.23H228.29z"/>
	<path class="st2" d="M302.91,81.98c-5.84,0-10.56-1.74-14.17-5.22c-3.61-3.48-5.41-8.01-5.41-13.59v-0.98
		c0-3.89,0.72-7.32,2.16-10.3c1.44-2.98,3.54-5.28,6.31-6.91c2.77-1.63,6.05-2.44,9.84-2.44c5.34,0,9.56,1.66,12.66,4.97
		c3.09,3.32,4.64,7.94,4.64,13.87v4.61h-23.55c0.42,2.13,1.35,3.81,2.78,5.03c1.43,1.22,3.28,1.83,5.55,1.83
		c3.75,0,6.68-1.31,8.79-3.94l5.41,6.4c-1.48,2.04-3.57,3.66-6.28,4.87S306.03,81.98,302.91,81.98z M301.58,51.67
		c-3.47,0-5.53,2.3-6.19,6.89h11.95v-0.91c0.05-1.9-0.43-3.37-1.44-4.41C304.89,52.19,303.45,51.67,301.58,51.67z"/>
	<path class="st2" d="M327.61,61.97c0-6.02,1.3-10.77,3.9-14.24c2.6-3.47,6.23-5.2,10.9-5.2c3.4,0,6.26,1.34,8.58,4.01V27.27h11.88
		v54h-10.65l-0.6-4.08c-2.44,3.19-5.53,4.78-9.28,4.78c-4.52,0-8.11-1.73-10.76-5.2C328.94,73.3,327.61,68.37,327.61,61.97z
		 M339.46,62.71c0,6.75,1.97,10.13,5.91,10.13c2.63,0,4.5-1.1,5.63-3.3V55.05c-1.08-2.25-2.93-3.38-5.55-3.38
		c-3.66,0-5.64,2.95-5.94,8.86L339.46,62.71z"/>
	<path class="st2" d="M374.92,33.42c0-1.69,0.61-3.07,1.83-4.15c1.22-1.08,2.8-1.62,4.75-1.62s3.53,0.54,4.75,1.62
		c1.22,1.08,1.83,2.46,1.83,4.15s-0.61,3.07-1.83,4.15c-1.22,1.08-2.8,1.62-4.75,1.62s-3.53-0.54-4.75-1.62
		C375.53,36.5,374.92,35.11,374.92,33.42z M387.51,81.27h-11.88V43.23h11.88V81.27z"/>
	<path class="st2" d="M421.63,81.27c-0.42-0.77-0.8-1.91-1.13-3.41c-2.18,2.74-5.23,4.11-9.14,4.11c-3.59,0-6.63-1.08-9.14-3.25
		c-2.51-2.17-3.76-4.89-3.76-8.17c0-4.13,1.52-7.24,4.57-9.35s7.48-3.16,13.29-3.16h3.66v-2.01c0-3.51-1.51-5.26-4.54-5.26
		c-2.81,0-4.22,1.39-4.22,4.17h-11.85c0-3.68,1.56-6.66,4.69-8.95s7.12-3.44,11.97-3.44s8.68,1.18,11.5,3.55
		c2.81,2.37,4.25,5.61,4.32,9.74v16.84c0.05,3.49,0.59,6.16,1.62,8.02v0.6H421.63z M414.21,73.54c1.48,0,2.7-0.32,3.67-0.95
		s1.67-1.35,2.09-2.14v-6.08h-3.45c-4.13,0-6.19,1.85-6.19,5.55c0,1.08,0.36,1.95,1.09,2.62S413.08,73.54,414.21,73.54z"/>
	<path class="st1" d="M466.83,53.96l-3.9-0.28c-3.73,0-6.12,1.17-7.17,3.52v24.08H443.9V43.23h11.11l0.39,4.89
		c1.99-3.73,4.77-5.59,8.33-5.59c1.27,0,2.37,0.14,3.3,0.42L466.83,53.96z"/>
	<path class="st1" d="M492.05,33.78v9.46h6.26v8.23h-6.26v17.4c0,1.43,0.26,2.43,0.77,2.99s1.54,0.84,3.06,0.84
		c1.17,0,2.16-0.07,2.95-0.21v8.47c-2.13,0.68-4.36,1.02-6.68,1.02c-4.08,0-7.09-0.96-9.04-2.88c-1.95-1.92-2.92-4.84-2.92-8.75
		V51.46h-4.85v-8.23h4.85v-9.46H492.05z"/>
	<path class="st1" d="M526.77,81.98c-5.84,0-10.56-1.74-14.17-5.22c-3.61-3.48-5.41-8.01-5.41-13.59v-0.98
		c0-3.89,0.72-7.32,2.16-10.3c1.44-2.98,3.54-5.28,6.31-6.91c2.77-1.63,6.05-2.44,9.84-2.44c5.34,0,9.56,1.66,12.66,4.97
		c3.09,3.32,4.64,7.94,4.64,13.87v4.61h-23.55c0.42,2.13,1.35,3.81,2.78,5.03c1.43,1.22,3.28,1.83,5.55,1.83
		c3.75,0,6.68-1.31,8.79-3.94l5.41,6.4c-1.48,2.04-3.57,3.66-6.28,4.87S529.89,81.98,526.77,81.98z M525.44,51.67
		c-3.47,0-5.53,2.3-6.19,6.89h11.95v-0.91c0.05-1.9-0.43-3.37-1.44-4.41C528.75,52.19,527.31,51.67,525.44,51.67z"/>
</g>
</svg>
